<svg xmlns="http://www.w3.org/2000/svg" viewBox="0 0 64 64" role="img" aria-labelledby="title">
  <title id="title">GNM Studio head</title>
  <rect width="64" height="64" rx="15" fill="#080b10"/>
  <path fill="#54ddb2" d="M8.004 21.512S7.248 4.708 24.58 1.22c17.332-3.488 27.852 6.024 29.4 12.684 1.548 6.66 2.3 10.072 1.548 12.684-.928 1.268-.62 2.22 1.236 5.392 1.856 3.172 5.572 6.66.308 7.292-3.404.636-1.236 2.852-1.236 2.852s.928 1.904-1.856 2.22c0 0 1.856 3.488.308 3.488-1.548 0-1.856.636-2.168 1.904-.308 1.268.308 8.244-10.524 4.12-2.476-1.268-3.568 3.908-4.952 6.976-.832 1.844-1.724 4.36-5.88 2.536-3.708-1.628-11.98-5.512-15.084-10.82-1.696-2.908 2.772-7.112.604-12.82-2.168-5.708-2.848-3.948-5.016-7.116-2.164-3.172-2.952-7.296-3.264-11.1Z"/>
</svg>
